<?xml version="1.0" standalone="no"?>
<!DOCTYPE svg PUBLIC "-//W3C//DTD SVG 20010904//EN"
 "http://www.w3.org/TR/2001/REC-SVG-20010904/DTD/svg10.dtd">
<svg version="1.0" xmlns="http://www.w3.org/2000/svg"
 width="700.000000pt" height="700.000000pt" viewBox="0 0 700.000000 700.000000"
 preserveAspectRatio="xMidYMid meet">
<metadata>
Created by potrace 1.14, written by Peter Selinger 2001-2017
</metadata>
<g transform="translate(0.000000,700.000000) scale(0.100000,-0.100000)"
fill="#000000" stroke="none">
<path d="M1177 4283 c-32 -31 42 -110 139 -146 62 -23 165 -53 219 -63 84 -15
240 -35 327 -41 203 -15 870 -9 1248 12 131 7 297 16 360 20 66 4 271 15 370
20 139 7 535 18 630 18 110 0 395 -11 427 -17 10 -2 54 -7 97 -11 43 -4 87 -8
96 -10 10 -2 35 -6 56 -9 286 -45 479 -117 535 -202 25 -38 25 -98 -1 -124
-17 -17 -30 -19 -102 -16 -46 2 -137 15 -203 29 -66 14 -237 50 -380 81 -143
30 -289 60 -325 65 -36 6 -76 13 -90 16 -51 9 -277 44 -330 50 -30 4 -66 8
-80 10 -14 2 -54 6 -90 10 -36 3 -81 8 -100 10 -223 27 -892 27 -1040 0 -14
-2 -43 -6 -65 -9 -144 -18 -370 -71 -540 -127 -396 -131 -778 -351 -1058 -610
l-40 -36 74 19 c123 31 368 28 485 -7 81 -24 103 -64 99 -180 -3 -69 -38 -241
-58 -280 -5 -11 24 12 64 52 86 83 100 95 234 195 249 186 569 380 860 523
249 122 399 180 525 201 14 3 50 9 80 14 106 19 217 25 450 25 203 0 411 -9
468 -19 9 -2 49 -7 87 -10 39 -4 81 -9 95 -11 14 -2 48 -7 75 -10 87 -11 226
-33 340 -55 61 -12 122 -23 136 -25 14 -2 48 -9 75 -15 116 -27 302 -32 377
-11 98 28 145 102 125 196 -18 80 -74 133 -234 217 -86 45 -293 121 -366 133
-18 3 -62 12 -98 20 -72 16 -166 32 -220 39 -284 34 -386 40 -790 40 -306 1
-549 -6 -720 -20 -30 -2 -86 -6 -125 -8 -73 -5 -188 -14 -265 -22 -25 -2 -85
-7 -135 -10 -49 -3 -101 -7 -115 -10 -104 -17 -733 -24 -905 -11 -118 10 -182
16 -225 22 -19 3 -53 8 -75 11 -72 10 -215 44 -273 64 -58 21 -94 25 -105 13z"/>
</g>
</svg>
